<?xml version="1.0" standalone="no"?><!DOCTYPE svg PUBLIC "-//W3C//DTD SVG 1.1//EN" "http://www.w3.org/Graphics/SVG/1.1/DTD/svg11.dtd"><svg t="1517968457559" class="icon" style="" viewBox="0 0 1024 1024" version="1.1" xmlns="http://www.w3.org/2000/svg" p-id="1975" xmlns:xlink="http://www.w3.org/1999/xlink" width="32" height="32"><defs><style type="text/css"></style></defs><path d="M320 446.64m-48 0a48 48 0 1 0 96 0 48 48 0 1 0-96 0Z" p-id="1976"></path><path d="M512 446.64m-48 0a48 48 0 1 0 96 0 48 48 0 1 0-96 0Z" p-id="1977"></path><path d="M704 446.64m-48 0a48 48 0 1 0 96 0 48 48 0 1 0-96 0Z" p-id="1978"></path><path d="M928 150.64H96a32 32 0 0 0-32 32v504a32 32 0 0 0 32 32h234.75l136 136a64.07 64.07 0 0 0 90.51 0l0.79-0.82L684 718.64h244a32 32 0 0 0 32-32v-504a32 32 0 0 0-32-32z m-32 504H670a32 32 0 0 0-23.42 10.19L512 809.37 366.63 664a32 32 0 0 0-22.63-9.36H128v-440h768z" p-id="1979"></path></svg>