<?xml version="1.0" standalone="no"?><!DOCTYPE svg PUBLIC "-//W3C//DTD SVG 1.1//EN" "http://www.w3.org/Graphics/SVG/1.1/DTD/svg11.dtd"><svg t="1519784036327" class="icon" style="" viewBox="0 0 1024 1024" version="1.1" xmlns="http://www.w3.org/2000/svg" p-id="1881" xmlns:xlink="http://www.w3.org/1999/xlink" width="32" height="32"><defs><style type="text/css"></style></defs><path d="M828.183196 195.176215C653.097552 20.075221 369.287671 20.075221 194.177468 195.157795c-175.110203 175.073364-175.110203 458.944644 0 634.002658 175.110203 175.094854 458.920084 175.094854 634.005728 0C1003.24735 654.102439 1003.24735 370.249579 828.183196 195.176215L828.183196 195.176215zM799.374056 800.369733c-159.187559 159.172209-417.21831 159.172209-576.363913 0-159.187559-159.194722-159.187559-417.23059 0-576.413032 159.14458-159.1323 417.175331-159.1323 576.363913 0.046049C958.51659 383.139144 958.51659 641.176035 799.374056 800.369733L799.374056 800.369733zM726.843136 362.330212l26.409486 26.430976L449.276447 692.746574l-26.412556-26.421766L726.843136 362.330212 726.843136 362.330212zM476.452389 666.324808l-26.409486 26.421766L251.558339 494.237451l26.384927-26.430976L476.452389 666.324808 476.452389 666.324808zM476.452389 666.324808" p-id="1882" fill="#1296db"></path></svg>